<svg xmlns="http://www.w3.org/2000/svg" xmlns:xlink="http://www.w3.org/1999/xlink" width="500" zoomAndPan="magnify" viewBox="0 0 375 374.999991" height="500" preserveAspectRatio="xMidYMid meet" version="1.0"><defs><clipPath id="e854bc5bc2"><path d="M 37.5 110.847656 L 282 110.847656 L 282 308.847656 L 37.5 308.847656 Z M 37.5 110.847656 " clip-rule="nonzero"/></clipPath><clipPath id="2ec3203576"><path d="M 107 110.847656 L 351 110.847656 L 351 308.847656 L 107 308.847656 Z M 107 110.847656 " clip-rule="nonzero"/></clipPath></defs><rect x="-37.5" width="450" fill="#ffffff" y="-37.499999" height="449.999989" fill-opacity="1"/><rect x="-37.5" width="450" fill="#fdfdfd" y="-37.499999" height="449.999989" fill-opacity="1"/><g clip-path="url(#e854bc5bc2)"><path fill="#323232" d="M 37.503906 110.9375 L 51.992188 115.976562 L 114.851562 137.835938 L 134.882812 144.796875 L 123.304688 151.542969 L 111.074219 158.667969 L 159.355469 238.246094 L 167.988281 224.011719 L 198.46875 173.765625 L 207.625 158.667969 L 201.511719 155.101562 L 183.820312 144.792969 L 205.449219 137.277344 L 266.707031 115.976562 L 281.199219 110.9375 L 268.417969 131.660156 L 266.707031 134.433594 L 254.5625 154.132812 L 220.28125 209.726562 L 189.730469 259.273438 L 167.894531 294.683594 L 159.347656 308.542969 L 150.800781 294.683594 L 51.992188 134.433594 L 37.503906 110.9375 " fill-opacity="1" fill-rule="nonzero"/></g><path fill="#323232" d="M 189.730469 259.273438 L 167.988281 224.011719 L 198.46875 173.765625 L 220.28125 209.726562 L 189.730469 259.273438 " fill-opacity="1" fill-rule="nonzero"/><g clip-path="url(#2ec3203576)"><path fill="#38b6ff" d="M 350.710938 110.9375 L 336.226562 134.433594 L 237.414062 294.683594 L 228.867188 308.542969 L 220.320312 294.683594 L 121.511719 134.433594 L 107.023438 110.9375 L 121.511719 115.976562 L 204.398438 144.800781 L 180.589844 158.667969 L 228.871094 238.246094 L 277.144531 158.667969 L 253.335938 144.792969 L 336.226562 115.976562 L 350.710938 110.9375 " fill-opacity="1" fill-rule="nonzero"/></g></svg>